<svg xmlns="http://www.w3.org/2000/svg" viewBox="0 0 24 24" fill="#60A5FA">
  <path fill-rule="evenodd" d="M9.315 7.584C12.195 3.883 16.695 1.5 21.75 1.5a.75.75 0 01.75.75c0 5.056-2.383 9.555-6.084 12.436h.004c-.384.289-.715.59-1.002.881l-3.128 3.128a1.5 1.5 0 01-2.122 0l-6.5-6.5a1.5 1.5 0 010-2.122l3.128-3.128c.29-.288.59-.619.881-1.002h.004zm-3.67 9.85l.001.002 6.5-6.5a.75.75 0 10-1.06-1.06L4.693 16.27a.75.75 0 001.06 1.06l-.107.106zm9.356-11.43a.75.75 0 00-1.06-1.06l-6.5 6.5a.75.75 0 101.06 1.06l6.5-6.5zm-8.25 12.5a.75.75 0 001.06-1.06l-1.02-1.02a.75.75 0 10-1.06 1.06l1.02 1.02z" clip-rule="evenodd" />
</svg>